# xmcd
#
# Track frame offsets:
# 150
# 8698
# 13114
#
# Disc length: 243 seconds
#
# Revision: 0
# Processed by: cddbd v1.4PL0 Copyright (c) Steve Scherf et al.
# Submitted via: Audion 3.0.2 (http://www.panic.com/audion/)
#
DISCID=1500f103
DTITLE=JJ - NCT samples
DYEAR=1900
DGENRE=
TTITLE0=Arc
TTITLE1=Playa
TTITLE2=Momentinnium
EXTD=
EXTT0=
EXTT1=
EXTT2=
PLAYORDER=
